<mxfile host="app.diagrams.net" modified="2020-09-22T08:30:58.623Z" agent="5.0 (Windows NT 10.0; Win64; x64) AppleWebKit/537.36 (KHTML, like Gecko) Chrome/85.0.4183.121 Safari/537.36" etag="wVhltrMDyaer2jd0yQT3" version="13.7.3" type="github">
  <diagram id="C5RBs43oDa-KdzZeNtuy" name="Page-1">
    <mxGraphModel dx="3206" dy="1277" grid="1" gridSize="10" guides="1" tooltips="1" connect="1" arrows="1" fold="1" page="1" pageScale="1" pageWidth="1169" pageHeight="827" background="none" math="0" shadow="0">
      <root>
        <mxCell id="WIyWlLk6GJQsqaUBKTNV-0" />
        <mxCell id="WIyWlLk6GJQsqaUBKTNV-1" parent="WIyWlLk6GJQsqaUBKTNV-0" />
        <mxCell id="KKwoinIEaRun2n8d-Eo_-2" style="edgeStyle=orthogonalEdgeStyle;rounded=0;orthogonalLoop=1;jettySize=auto;html=1;entryX=0.5;entryY=0;entryDx=0;entryDy=0;" edge="1" parent="WIyWlLk6GJQsqaUBKTNV-1" source="WIyWlLk6GJQsqaUBKTNV-3" target="KKwoinIEaRun2n8d-Eo_-1">
          <mxGeometry relative="1" as="geometry" />
        </mxCell>
        <mxCell id="WIyWlLk6GJQsqaUBKTNV-3" value="&lt;b&gt;Call Resource Service&amp;nbsp;&lt;/b&gt;&lt;br&gt;&lt;div style=&quot;text-align: left&quot;&gt;Get Buildings in the City/Areas&lt;/div&gt;" style="rounded=1;whiteSpace=wrap;html=1;fontSize=12;glass=0;strokeWidth=1;shadow=0;align=center;" parent="WIyWlLk6GJQsqaUBKTNV-1" vertex="1">
          <mxGeometry x="-1865" y="-60" width="180" height="40" as="geometry" />
        </mxCell>
        <mxCell id="WIyWlLk6GJQsqaUBKTNV-4" value="Yes" style="rounded=0;html=1;jettySize=auto;orthogonalLoop=1;fontSize=11;endArrow=block;endFill=0;endSize=8;strokeWidth=1;shadow=0;labelBackgroundColor=none;edgeStyle=orthogonalEdgeStyle;" parent="WIyWlLk6GJQsqaUBKTNV-1" edge="1">
          <mxGeometry y="20" relative="1" as="geometry">
            <mxPoint as="offset" />
            <mxPoint x="250" y="320" as="sourcePoint" />
          </mxGeometry>
        </mxCell>
        <mxCell id="WIyWlLk6GJQsqaUBKTNV-5" value="No" style="edgeStyle=orthogonalEdgeStyle;rounded=0;html=1;jettySize=auto;orthogonalLoop=1;fontSize=11;endArrow=block;endFill=0;endSize=8;strokeWidth=1;shadow=0;labelBackgroundColor=none;" parent="WIyWlLk6GJQsqaUBKTNV-1" edge="1">
          <mxGeometry y="10" relative="1" as="geometry">
            <mxPoint as="offset" />
            <mxPoint x="380" y="230" as="targetPoint" />
          </mxGeometry>
        </mxCell>
        <mxCell id="WIyWlLk6GJQsqaUBKTNV-8" value="No" style="rounded=0;html=1;jettySize=auto;orthogonalLoop=1;fontSize=11;endArrow=block;endFill=0;endSize=8;strokeWidth=1;shadow=0;labelBackgroundColor=none;edgeStyle=orthogonalEdgeStyle;" parent="WIyWlLk6GJQsqaUBKTNV-1" edge="1">
          <mxGeometry x="0.3333" y="20" relative="1" as="geometry">
            <mxPoint as="offset" />
            <mxPoint x="220" y="370" as="sourcePoint" />
          </mxGeometry>
        </mxCell>
        <mxCell id="WIyWlLk6GJQsqaUBKTNV-9" value="Yes" style="edgeStyle=orthogonalEdgeStyle;rounded=0;html=1;jettySize=auto;orthogonalLoop=1;fontSize=11;endArrow=block;endFill=0;endSize=8;strokeWidth=1;shadow=0;labelBackgroundColor=none;" parent="WIyWlLk6GJQsqaUBKTNV-1" edge="1">
          <mxGeometry y="10" relative="1" as="geometry">
            <mxPoint as="offset" />
            <mxPoint x="270" y="330" as="sourcePoint" />
          </mxGeometry>
        </mxCell>
        <mxCell id="KKwoinIEaRun2n8d-Eo_-0" style="edgeStyle=orthogonalEdgeStyle;rounded=0;orthogonalLoop=1;jettySize=auto;html=1;entryX=0.5;entryY=0;entryDx=0;entryDy=0;" edge="1" parent="WIyWlLk6GJQsqaUBKTNV-1" source="8CnQwpFaGnil6D6pqTt6-2" target="WIyWlLk6GJQsqaUBKTNV-3">
          <mxGeometry relative="1" as="geometry">
            <mxPoint x="-1836" y="-70" as="targetPoint" />
          </mxGeometry>
        </mxCell>
        <mxCell id="8CnQwpFaGnil6D6pqTt6-2" value="&lt;b&gt;Search Request&amp;nbsp;&lt;/b&gt;&lt;br&gt;&lt;div style=&quot;text-align: left&quot;&gt;Country*&lt;/div&gt;&lt;div style=&quot;text-align: left&quot;&gt;City*&lt;/div&gt;&lt;div style=&quot;text-align: left&quot;&gt;Available From*&lt;/div&gt;&lt;div style=&quot;text-align: left&quot;&gt;Avaialbe To*&lt;/div&gt;&lt;div style=&quot;text-align: left&quot;&gt;Areas&lt;/div&gt;&lt;div style=&quot;text-align: left&quot;&gt;Capacity&lt;/div&gt;&lt;div style=&quot;text-align: left&quot;&gt;Amenities&lt;/div&gt;" style="rounded=1;whiteSpace=wrap;html=1;" parent="WIyWlLk6GJQsqaUBKTNV-1" vertex="1">
          <mxGeometry x="-1835" y="-240" width="120" height="130" as="geometry" />
        </mxCell>
        <mxCell id="KKwoinIEaRun2n8d-Eo_-24" style="edgeStyle=none;rounded=0;orthogonalLoop=1;jettySize=auto;html=1;entryX=0.5;entryY=0;entryDx=0;entryDy=0;" edge="1" parent="WIyWlLk6GJQsqaUBKTNV-1" source="8CnQwpFaGnil6D6pqTt6-5" target="KKwoinIEaRun2n8d-Eo_-23">
          <mxGeometry relative="1" as="geometry" />
        </mxCell>
        <mxCell id="8CnQwpFaGnil6D6pqTt6-5" value="Get Meeting Rooms in city" style="rounded=1;whiteSpace=wrap;html=1;" parent="WIyWlLk6GJQsqaUBKTNV-1" vertex="1">
          <mxGeometry x="-2147" y="40" width="180" height="40" as="geometry" />
        </mxCell>
        <mxCell id="8CnQwpFaGnil6D6pqTt6-18" value="" style="edgeStyle=orthogonalEdgeStyle;rounded=0;orthogonalLoop=1;jettySize=auto;html=1;" parent="WIyWlLk6GJQsqaUBKTNV-1" source="8CnQwpFaGnil6D6pqTt6-15" target="8CnQwpFaGnil6D6pqTt6-17" edge="1">
          <mxGeometry relative="1" as="geometry" />
        </mxCell>
        <mxCell id="8CnQwpFaGnil6D6pqTt6-15" value="Primary Set of Buildings in City/Area" style="rounded=0;whiteSpace=wrap;html=1;" parent="WIyWlLk6GJQsqaUBKTNV-1" vertex="1">
          <mxGeometry x="-1835" y="150" width="120" height="60" as="geometry" />
        </mxCell>
        <mxCell id="KKwoinIEaRun2n8d-Eo_-7" value="True" style="edgeStyle=orthogonalEdgeStyle;rounded=0;orthogonalLoop=1;jettySize=auto;html=1;entryX=0;entryY=0.5;entryDx=0;entryDy=0;" edge="1" parent="WIyWlLk6GJQsqaUBKTNV-1" source="8CnQwpFaGnil6D6pqTt6-17" target="8CnQwpFaGnil6D6pqTt6-19">
          <mxGeometry relative="1" as="geometry" />
        </mxCell>
        <mxCell id="KKwoinIEaRun2n8d-Eo_-8" value="False" style="edgeStyle=orthogonalEdgeStyle;rounded=0;orthogonalLoop=1;jettySize=auto;html=1;entryX=1;entryY=0.133;entryDx=0;entryDy=0;entryPerimeter=0;" edge="1" parent="WIyWlLk6GJQsqaUBKTNV-1" source="8CnQwpFaGnil6D6pqTt6-17" target="8CnQwpFaGnil6D6pqTt6-21">
          <mxGeometry relative="1" as="geometry" />
        </mxCell>
        <mxCell id="8CnQwpFaGnil6D6pqTt6-17" value="If Buildings &amp;gt; limit" style="rhombus;whiteSpace=wrap;html=1;rounded=0;" parent="WIyWlLk6GJQsqaUBKTNV-1" vertex="1">
          <mxGeometry x="-1846" y="240" width="141" height="100" as="geometry" />
        </mxCell>
        <mxCell id="KKwoinIEaRun2n8d-Eo_-12" style="edgeStyle=orthogonalEdgeStyle;rounded=0;orthogonalLoop=1;jettySize=auto;html=1;entryX=1;entryY=0.5;entryDx=0;entryDy=0;" edge="1" parent="WIyWlLk6GJQsqaUBKTNV-1" source="8CnQwpFaGnil6D6pqTt6-19" target="8CnQwpFaGnil6D6pqTt6-25">
          <mxGeometry relative="1" as="geometry">
            <Array as="points">
              <mxPoint x="-1526" y="460" />
            </Array>
          </mxGeometry>
        </mxCell>
        <mxCell id="8CnQwpFaGnil6D6pqTt6-19" value="&lt;p class=&quot;MsoNormal&quot; style=&quot;margin-bottom: 0.0001pt&quot;&gt;&lt;/p&gt;&lt;div style=&quot;text-align: center&quot;&gt;&lt;span&gt;Fragment buildings into chunks and Frame OfficeRnd&amp;nbsp;&lt;/span&gt;&lt;span&gt;Availability Req with building Ids, available From, available To and Capacity,&amp;nbsp;&lt;/span&gt;&lt;span&gt;Amenities&lt;/span&gt;&lt;/div&gt;&lt;p&gt;&lt;/p&gt;" style="whiteSpace=wrap;html=1;rounded=0;align=left;" parent="WIyWlLk6GJQsqaUBKTNV-1" vertex="1">
          <mxGeometry x="-1619.5" y="252.5" width="216" height="75" as="geometry" />
        </mxCell>
        <mxCell id="KKwoinIEaRun2n8d-Eo_-13" style="edgeStyle=orthogonalEdgeStyle;rounded=0;orthogonalLoop=1;jettySize=auto;html=1;entryX=0;entryY=0.5;entryDx=0;entryDy=0;" edge="1" parent="WIyWlLk6GJQsqaUBKTNV-1" source="8CnQwpFaGnil6D6pqTt6-21" target="8CnQwpFaGnil6D6pqTt6-26">
          <mxGeometry relative="1" as="geometry">
            <Array as="points">
              <mxPoint x="-2058" y="500" />
            </Array>
          </mxGeometry>
        </mxCell>
        <mxCell id="8CnQwpFaGnil6D6pqTt6-21" value="&lt;p class=&quot;MsoNormal&quot; style=&quot;margin-bottom: 0.0001pt&quot;&gt;Req OfficeRnd for Availability with buildings, available From, available to and capacity, Amenities&lt;/p&gt;" style="whiteSpace=wrap;html=1;rounded=0;align=center;" parent="WIyWlLk6GJQsqaUBKTNV-1" vertex="1">
          <mxGeometry x="-2166" y="285" width="216" height="60" as="geometry" />
        </mxCell>
        <mxCell id="KKwoinIEaRun2n8d-Eo_-15" style="edgeStyle=orthogonalEdgeStyle;rounded=0;orthogonalLoop=1;jettySize=auto;html=1;entryX=0.5;entryY=0;entryDx=0;entryDy=0;" edge="1" parent="WIyWlLk6GJQsqaUBKTNV-1" source="8CnQwpFaGnil6D6pqTt6-42" target="8CnQwpFaGnil6D6pqTt6-50">
          <mxGeometry relative="1" as="geometry" />
        </mxCell>
        <mxCell id="KKwoinIEaRun2n8d-Eo_-30" style="rounded=0;orthogonalLoop=1;jettySize=auto;html=1;" edge="1" parent="WIyWlLk6GJQsqaUBKTNV-1" source="8CnQwpFaGnil6D6pqTt6-42" target="8CnQwpFaGnil6D6pqTt6-44">
          <mxGeometry relative="1" as="geometry" />
        </mxCell>
        <mxCell id="8CnQwpFaGnil6D6pqTt6-42" value="Available Meeting Rooms" style="whiteSpace=wrap;html=1;rounded=1;" parent="WIyWlLk6GJQsqaUBKTNV-1" vertex="1">
          <mxGeometry x="-1889.25" y="560" width="156.25" height="35" as="geometry" />
        </mxCell>
        <mxCell id="KKwoinIEaRun2n8d-Eo_-31" style="edgeStyle=orthogonalEdgeStyle;rounded=0;orthogonalLoop=1;jettySize=auto;html=1;exitX=0.5;exitY=1;exitDx=0;exitDy=0;" edge="1" parent="WIyWlLk6GJQsqaUBKTNV-1">
          <mxGeometry relative="1" as="geometry">
            <mxPoint x="-1811" y="642" as="targetPoint" />
            <mxPoint x="-2077" y="602" as="sourcePoint" />
            <Array as="points">
              <mxPoint x="-2077" y="630" />
              <mxPoint x="-1811" y="630" />
            </Array>
          </mxGeometry>
        </mxCell>
        <mxCell id="8CnQwpFaGnil6D6pqTt6-44" value="Intersection of Available Meeting Rooms" style="whiteSpace=wrap;html=1;" parent="WIyWlLk6GJQsqaUBKTNV-1" vertex="1">
          <mxGeometry x="-2156" y="552.5" width="160" height="47.5" as="geometry" />
        </mxCell>
        <mxCell id="KKwoinIEaRun2n8d-Eo_-17" value="True" style="edgeStyle=orthogonalEdgeStyle;rounded=0;orthogonalLoop=1;jettySize=auto;html=1;" edge="1" parent="WIyWlLk6GJQsqaUBKTNV-1" source="8CnQwpFaGnil6D6pqTt6-50">
          <mxGeometry relative="1" as="geometry">
            <mxPoint x="-1596" y="697.25" as="targetPoint" />
          </mxGeometry>
        </mxCell>
        <mxCell id="KKwoinIEaRun2n8d-Eo_-19" value="False" style="edgeStyle=none;rounded=0;orthogonalLoop=1;jettySize=auto;html=1;exitX=0.5;exitY=1;exitDx=0;exitDy=0;" edge="1" parent="WIyWlLk6GJQsqaUBKTNV-1" source="8CnQwpFaGnil6D6pqTt6-50" target="8CnQwpFaGnil6D6pqTt6-58">
          <mxGeometry relative="1" as="geometry" />
        </mxCell>
        <mxCell id="8CnQwpFaGnil6D6pqTt6-50" value="Available Meeting Rooms &amp;lt; 2" style="rhombus;whiteSpace=wrap;html=1;rounded=0;" parent="WIyWlLk6GJQsqaUBKTNV-1" vertex="1">
          <mxGeometry x="-1901.12" y="642.25" width="180" height="110" as="geometry" />
        </mxCell>
        <mxCell id="KKwoinIEaRun2n8d-Eo_-21" style="edgeStyle=none;rounded=0;orthogonalLoop=1;jettySize=auto;html=1;entryX=0.473;entryY=-0.057;entryDx=0;entryDy=0;entryPerimeter=0;" edge="1" parent="WIyWlLk6GJQsqaUBKTNV-1" source="8CnQwpFaGnil6D6pqTt6-58" target="8CnQwpFaGnil6D6pqTt6-68">
          <mxGeometry relative="1" as="geometry" />
        </mxCell>
        <mxCell id="8CnQwpFaGnil6D6pqTt6-58" value="&lt;p class=&quot;MsoNormal&quot; align=&quot;center&quot;&gt;Req Correlation&lt;br/&gt;Service for Equivalent CMS/Drupal Id’s of available MRs&lt;/p&gt;" style="whiteSpace=wrap;html=1;rounded=1;" parent="WIyWlLk6GJQsqaUBKTNV-1" vertex="1">
          <mxGeometry x="-1900" y="813.25" width="182.5" height="45" as="geometry" />
        </mxCell>
        <mxCell id="KKwoinIEaRun2n8d-Eo_-5" value="True" style="edgeStyle=orthogonalEdgeStyle;rounded=0;orthogonalLoop=1;jettySize=auto;html=1;entryX=1;entryY=0.5;entryDx=0;entryDy=0;" edge="1" parent="WIyWlLk6GJQsqaUBKTNV-1" source="KKwoinIEaRun2n8d-Eo_-1" target="8CnQwpFaGnil6D6pqTt6-5">
          <mxGeometry relative="1" as="geometry">
            <Array as="points">
              <mxPoint x="-1937" y="60" />
              <mxPoint x="-1937" y="60" />
            </Array>
          </mxGeometry>
        </mxCell>
        <mxCell id="KKwoinIEaRun2n8d-Eo_-6" value="False" style="edgeStyle=orthogonalEdgeStyle;rounded=0;orthogonalLoop=1;jettySize=auto;html=1;" edge="1" parent="WIyWlLk6GJQsqaUBKTNV-1" source="KKwoinIEaRun2n8d-Eo_-1" target="8CnQwpFaGnil6D6pqTt6-15">
          <mxGeometry relative="1" as="geometry" />
        </mxCell>
        <mxCell id="KKwoinIEaRun2n8d-Eo_-1" value="if Buildings &amp;gt; 40" style="rhombus;whiteSpace=wrap;html=1;" vertex="1" parent="WIyWlLk6GJQsqaUBKTNV-1">
          <mxGeometry x="-1855" y="20" width="160" height="80" as="geometry" />
        </mxCell>
        <mxCell id="KKwoinIEaRun2n8d-Eo_-9" value="" style="group" vertex="1" connectable="0" parent="WIyWlLk6GJQsqaUBKTNV-1">
          <mxGeometry x="-1936" y="400" width="250" height="120" as="geometry" />
        </mxCell>
        <mxCell id="8CnQwpFaGnil6D6pqTt6-24" value="Instansiate OfficeRnd Instance with Country" style="rounded=0;whiteSpace=wrap;html=1;" parent="KKwoinIEaRun2n8d-Eo_-9" vertex="1">
          <mxGeometry width="250" height="40" as="geometry" />
        </mxCell>
        <mxCell id="8CnQwpFaGnil6D6pqTt6-25" value="&lt;p class=&quot;MsoNormal&quot; align=&quot;center&quot;&gt;OfficeRnd concurrent Requests for availability&lt;/p&gt;" style="rounded=1;whiteSpace=wrap;html=1;" parent="KKwoinIEaRun2n8d-Eo_-9" vertex="1">
          <mxGeometry y="40" width="250" height="40" as="geometry" />
        </mxCell>
        <mxCell id="8CnQwpFaGnil6D6pqTt6-26" value="&lt;p class=&quot;MsoNormal&quot; align=&quot;center&quot;&gt;Get Available Meeting Rooms&lt;/p&gt;" style="rounded=1;whiteSpace=wrap;html=1;" parent="KKwoinIEaRun2n8d-Eo_-9" vertex="1">
          <mxGeometry y="80" width="250" height="40" as="geometry" />
        </mxCell>
        <mxCell id="KKwoinIEaRun2n8d-Eo_-11" style="edgeStyle=orthogonalEdgeStyle;rounded=0;orthogonalLoop=1;jettySize=auto;html=1;" edge="1" parent="WIyWlLk6GJQsqaUBKTNV-1" source="8CnQwpFaGnil6D6pqTt6-26" target="8CnQwpFaGnil6D6pqTt6-42">
          <mxGeometry relative="1" as="geometry" />
        </mxCell>
        <mxCell id="KKwoinIEaRun2n8d-Eo_-16" value="" style="group" vertex="1" connectable="0" parent="WIyWlLk6GJQsqaUBKTNV-1">
          <mxGeometry x="-1596" y="638.75" width="192.5" height="117" as="geometry" />
        </mxCell>
        <mxCell id="8CnQwpFaGnil6D6pqTt6-52" value="&lt;p class=&quot;MsoNormal&quot; align=&quot;center&quot; style=&quot;margin-bottom: 0.0001pt&quot;&gt;Req Resource Service for Alternate buildings to buildings in areas&lt;/p&gt;" style="whiteSpace=wrap;html=1;rounded=0;" parent="KKwoinIEaRun2n8d-Eo_-16" vertex="1">
          <mxGeometry width="190" height="60" as="geometry" />
        </mxCell>
        <mxCell id="8CnQwpFaGnil6D6pqTt6-55" value="&lt;p class=&quot;MsoNormal&quot; align=&quot;center&quot;&gt;Find Alternative Time&lt;br/&gt;slots One before the selected time slot and One after the slot&lt;/p&gt;" style="whiteSpace=wrap;html=1;rounded=0;" parent="KKwoinIEaRun2n8d-Eo_-16" vertex="1">
          <mxGeometry y="62" width="192.5" height="55" as="geometry" />
        </mxCell>
        <mxCell id="KKwoinIEaRun2n8d-Eo_-18" style="rounded=0;orthogonalLoop=1;jettySize=auto;html=1;exitX=1;exitY=1;exitDx=0;exitDy=0;entryX=0.5;entryY=0;entryDx=0;entryDy=0;fillColor=#dae8fc;strokeColor=#6c8ebf;" edge="1" parent="WIyWlLk6GJQsqaUBKTNV-1" source="8CnQwpFaGnil6D6pqTt6-52" target="8CnQwpFaGnil6D6pqTt6-17">
          <mxGeometry relative="1" as="geometry">
            <mxPoint x="-1796" y="230" as="targetPoint" />
            <Array as="points">
              <mxPoint x="-1316" y="700" />
              <mxPoint x="-1316" y="240" />
            </Array>
          </mxGeometry>
        </mxCell>
        <mxCell id="KKwoinIEaRun2n8d-Eo_-20" value="" style="group" vertex="1" connectable="0" parent="WIyWlLk6GJQsqaUBKTNV-1">
          <mxGeometry x="-1906" y="889" width="205" height="105" as="geometry" />
        </mxCell>
        <mxCell id="8CnQwpFaGnil6D6pqTt6-68" value="&lt;span style=&quot;font-size: 11.0pt ; line-height: 107% ; font-family: &amp;#34;calibri&amp;#34; , sans-serif&quot;&gt;Primary: Meeting Roomss available in primary set of&amp;nbsp;&lt;/span&gt;" style="whiteSpace=wrap;html=1;rounded=1;" parent="KKwoinIEaRun2n8d-Eo_-20" vertex="1">
          <mxGeometry width="205" height="52.5" as="geometry" />
        </mxCell>
        <mxCell id="8CnQwpFaGnil6D6pqTt6-70" value="&lt;span style=&quot;font-size: 11.0pt ; line-height: 107% ; font-family: &amp;#34;calibri&amp;#34; , sans-serif&quot;&gt;Near by:&lt;br&gt;Meeting Rooms available in primary set of&amp;nbsp;&lt;/span&gt;" style="whiteSpace=wrap;html=1;rounded=1;" parent="KKwoinIEaRun2n8d-Eo_-20" vertex="1">
          <mxGeometry y="52.5" width="205" height="52.5" as="geometry" />
        </mxCell>
        <mxCell id="KKwoinIEaRun2n8d-Eo_-22" value="&lt;br&gt;&lt;span style=&quot;color: rgb(0 , 0 , 0) ; font-family: &amp;#34;helvetica&amp;#34; ; font-size: 12px ; font-style: normal ; font-weight: 400 ; letter-spacing: normal ; text-align: center ; text-indent: 0px ; text-transform: none ; word-spacing: 0px&quot;&gt;Req OfficeRnd for Availability without buildings, available&amp;nbsp;&lt;/span&gt;&lt;span style=&quot;font-family: &amp;#34;helvetica&amp;#34;&quot;&gt;from, available to and capacity, amenities&lt;/span&gt;&lt;span style=&quot;color: rgb(0 , 0 , 0) ; font-family: &amp;#34;helvetica&amp;#34; ; font-size: 12px ; font-style: normal ; font-weight: 400 ; letter-spacing: normal ; text-align: center ; text-indent: 0px ; text-transform: none ; word-spacing: 0px&quot;&gt;&lt;br&gt;&lt;/span&gt;" style="whiteSpace=wrap;html=1;" vertex="1" parent="WIyWlLk6GJQsqaUBKTNV-1">
          <mxGeometry x="-2162" y="220" width="210" height="57.5" as="geometry" />
        </mxCell>
        <mxCell id="KKwoinIEaRun2n8d-Eo_-25" style="edgeStyle=none;rounded=0;orthogonalLoop=1;jettySize=auto;html=1;" edge="1" parent="WIyWlLk6GJQsqaUBKTNV-1" source="KKwoinIEaRun2n8d-Eo_-23" target="KKwoinIEaRun2n8d-Eo_-22">
          <mxGeometry relative="1" as="geometry" />
        </mxCell>
        <mxCell id="KKwoinIEaRun2n8d-Eo_-29" style="edgeStyle=orthogonalEdgeStyle;rounded=0;orthogonalLoop=1;jettySize=auto;html=1;entryX=0;entryY=0.5;entryDx=0;entryDy=0;" edge="1" parent="WIyWlLk6GJQsqaUBKTNV-1" source="KKwoinIEaRun2n8d-Eo_-23" target="8CnQwpFaGnil6D6pqTt6-44">
          <mxGeometry relative="1" as="geometry">
            <Array as="points">
              <mxPoint x="-2176" y="130" />
              <mxPoint x="-2176" y="576" />
            </Array>
          </mxGeometry>
        </mxCell>
        <mxCell id="KKwoinIEaRun2n8d-Eo_-23" value="Total Meeting Rooms in City" style="whiteSpace=wrap;html=1;" vertex="1" parent="WIyWlLk6GJQsqaUBKTNV-1">
          <mxGeometry x="-2134.5" y="110" width="155" height="40" as="geometry" />
        </mxCell>
      </root>
    </mxGraphModel>
  </diagram>
</mxfile>
